<?xml version="1.0" standalone="no"?>
<!DOCTYPE svg PUBLIC "-//W3C//DTD SVG 20010904//EN"
 "http://www.w3.org/TR/2001/REC-SVG-20010904/DTD/svg10.dtd">
<svg version="1.0" xmlns="http://www.w3.org/2000/svg"
 width="170.000000pt" height="170.000000pt" viewBox="0 0 170.000000 170.000000"
 preserveAspectRatio="xMidYMid meet">
<metadata>
Created by potrace 1.11, written by Peter Selinger 2001-2013
</metadata>
<g transform="translate(0.000000,170.000000) scale(0.100000,-0.100000)"
fill="#000000" stroke="none">
<path d="M590 1310 c-19 -19 -20 -31 -18 -158 3 -114 6 -137 18 -137 12 0 16
24 20 135 l5 135 335 0 335 0 0 -255 0 -255 -235 -5 c-200 -4 -235 -7 -235
-20 0 -11 14 -16 58 -18 l57 -3 0 -39 0 -39 -67 -3 c-53 -2 -68 -6 -68 -18 0
-13 24 -15 155 -15 131 0 155 2 155 15 0 12 -15 16 -67 18 l-68 3 0 39 0 40
160 0 c147 0 162 2 180 20 19 19 20 33 20 283 0 243 -1 265 -18 280 -17 15
-56 17 -360 17 -330 0 -343 -1 -362 -20z"/>
<path d="M929 1181 c-37 -37 -38 -79 -3 -120 19 -23 22 -31 11 -31 -39 0 -113
-92 -101 -124 9 -25 23 -19 40 17 45 92 165 98 221 10 24 -37 36 -45 46 -28
16 29 -62 125 -102 125 -7 0 -1 13 13 31 35 41 34 83 -3 120 -40 39 -82 39
-122 0z m93 -28 c22 -20 23 -41 1 -65 -20 -22 -41 -23 -65 -1 -22 20 -23 41
-1 65 20 22 41 23 65 1z"/>
<path d="M540 932 c-103 -51 -108 -200 -8 -263 39 -24 120 -21 163 7 56 37 77
123 45 189 -36 75 -125 105 -200 67z m105 -32 c37 -14 55 -35 66 -75 30 -109
-112 -181 -185 -94 -72 86 15 209 119 169z"/>
<path d="M524 614 c-47 -17 -106 -70 -130 -116 -9 -17 -17 -52 -18 -77 l-1
-46 235 0 235 0 3 23 c9 65 -57 170 -132 209 -43 22 -142 26 -192 7z m148 -36
c21 -6 54 -26 73 -44 33 -31 42 -47 59 -101 l7 -23 -201 0 -201 0 7 23 c22 70
49 105 109 135 46 24 91 27 147 10z"/>
</g>
</svg>
