<svg id="Ebene_1" data-name="Ebene 1" xmlns="http://www.w3.org/2000/svg" viewBox="0 0 24 23"><defs><style>.cls-1{fill:none;stroke:#010101;stroke-linecap:round;stroke-linejoin:round;}.cls-2{fill:#010101;}</style></defs><title>byod</title><g id="Computers-Devices-Electronics_Desktop-Computers_monitor-1" data-name="Computers-Devices-Electronics / Desktop-Computers / monitor-1"><g id="Group_78" data-name="Group 78"><g id="monitor-1"><path id="Rectangle-path_45" data-name="Rectangle-path 45" class="cls-1" d="M.5,1.5a1,1,0,0,1,1-1h21a1,1,0,0,1,1,1v14a1,1,0,0,1-1,1H1.5a1,1,0,0,1-1-1Z"/><path id="Shape_382" data-name="Shape 382" class="cls-1" d="M12,20a9.18,9.18,0,0,1,2,.2l-.46-3.7h-3L10,20.2A9.18,9.18,0,0,1,12,20Z"/><path id="Shape_383" data-name="Shape 383" class="cls-1" d="M7,22.5C7,21.12,9.24,20,12,20s5,1.12,5,2.5Z"/></g></g></g><path class="cls-2" d="M4.89,6c1,0,1.78.36,1.78,1.3A1.1,1.1,0,0,1,6,8.41a1.15,1.15,0,0,1,.81,1.15c0,.95-.7,1.37-1.79,1.37H3V6Zm-1.28.58V8.16H4.87C5.52,8.16,6,8,6,7.38s-.52-.77-1.16-.77Zm0,2.12v1.62H5c.71,0,1.17-.18,1.17-.82s-.46-.8-1.17-.8Z"/><path class="cls-2" d="M9.37,8.89v2H8.75v-2L6.83,6h.73L9.07,8.32,10.57,6h.71Z"/><path class="cls-2" d="M16.22,8.48A2.44,2.44,0,0,1,13.69,11a2.44,2.44,0,0,1-2.53-2.52A2.43,2.43,0,0,1,13.69,6,2.43,2.43,0,0,1,16.22,8.48Zm-4.42,0a1.89,1.89,0,1,0,3.78,0,1.89,1.89,0,1,0-3.78,0Z"/><path class="cls-2" d="M18.9,6a2.36,2.36,0,0,1,2.59,2.45,2.36,2.36,0,0,1-2.59,2.45H17V6Zm-1.25.59v3.72H18.9a1.74,1.74,0,0,0,1.94-1.86A1.74,1.74,0,0,0,18.9,6.62Z"/></svg>