<svg id="Light" xmlns="http://www.w3.org/2000/svg" viewBox="0 0 24 24"><defs><style>.cls-1{fill:none;stroke:currentColor;stroke-linecap:round;stroke-linejoin:round;}</style></defs><title>escalator-ascend</title><path class="cls-1" d="M9.992,21.684a1,1,0,0,1-.73.316H3.5a3,3,0,0,1,0-6H6.871a1,1,0,0,0,.73-.316l6.907-7.368A1,1,0,0,1,15.238,8H20.5a3,3,0,0,1,0,6H17.629a1,1,0,0,0-.73.316Z"/><line class="cls-1" x1="2.5" y1="10" x2="10.5" y2="2"/><polyline class="cls-1" points="5.5 2 10.5 2 10.5 7"/></svg>