<svg id="Ebene_1" data-name="Ebene 1" xmlns="http://www.w3.org/2000/svg" viewBox="0 0 37.49 29.95"><defs><style>.cls-1{fill:none;stroke:#010101;stroke-linecap:round;stroke-linejoin:round;}.cls-2{fill:#010101;}</style></defs><title>git_handover</title><path id="Shape_268" data-name="Shape 268" class="cls-1" d="M.5,5.32H3.14a1,1,0,0,0,.64-.24L8.7.93A1.66,1.66,0,0,1,11,3.38L10,4.32h7.74a1.25,1.25,0,0,1,0,2.5"/><path id="Shape_269" data-name="Shape 269" class="cls-1" d="M12.5,11.82h4.25a1.25,1.25,0,0,1,0,2.5H10.49a3.09,3.09,0,0,1-1-.15l-5.39-1.8a1.06,1.06,0,0,0-.31,0H.5"/><path id="Shape_270" data-name="Shape 270" class="cls-1" d="M13.5,6.82h5.25a1.25,1.25,0,0,1,0,2.5H13.5"/><path id="Shape_271" data-name="Shape 271" class="cls-1" d="M16.75,11.82h1a1.25,1.25,0,0,0,0-2.5"/><path id="Shape_662" data-name="Shape 662" class="cls-1" d="M19.48,6.45h9A1.5,1.5,0,0,1,30,8v13.5"/><path id="Shape_662-2" data-name="Shape 662" class="cls-1" d="M27.49,27.45h-12A1.51,1.51,0,0,1,14,26V14.32"/><path id="Shape_664" data-name="Shape 664" class="cls-1" d="M37,29.45l-3-4V20.89c0-1.7-2.08-3.3-4-4.94"/><path id="Shape_665" data-name="Shape 665" class="cls-1" d="M31,22.45,28.74,20.2a1.05,1.05,0,0,0-1.5,0,1.26,1.26,0,0,0,0,1.5L30,25v1c0,1,2,3.5,2,3.5"/><path class="cls-2" d="M21.21,15.29l-.45.44a1.86,1.86,0,0,0-1.45-.66A1.84,1.84,0,0,0,17.42,17a1.84,1.84,0,0,0,1.86,1.93A1.58,1.58,0,0,0,21,17.39H19.53v-.57h2.13c0,.05,0,.1,0,.15a2.36,2.36,0,0,1-2.39,2.54,2.52,2.52,0,0,1,0-5A2.48,2.48,0,0,1,21.21,15.29Z"/><path class="cls-2" d="M23.23,19.44h-.61V14.55h.61Z"/><path class="cls-2" d="M27.85,15.14H26.18v4.3h-.61v-4.3H23.9v-.59h4Z"/></svg>