<svg id="Light" xmlns="http://www.w3.org/2000/svg" viewBox="0 0 24 24"><defs><style>.cls-1{fill:none;stroke:currentColor;stroke-linecap:round;stroke-linejoin:round;}</style></defs><title>multiple-chat</title><path class="cls-1" d="M6.5,8.5a1,1,0,0,0,1,1h1l2.573,2.573A.25.25,0,0,0,11.5,11.9V9.5h7a1,1,0,0,0,1-1v-7a1,1,0,0,0-1-1H7.5a1,1,0,0,0-1,1Z"/><line class="cls-1" x1="9.5" y1="3.5" x2="16.469" y2="3.5"/><line class="cls-1" x1="9.5" y1="6.5" x2="16.469" y2="6.5"/><circle class="cls-1" cx="5" cy="13.75" r="2.25"/><path class="cls-1" d="M8.169,18.27A4.633,4.633,0,0,0,.5,20.5h6"/><circle class="cls-1" cx="19" cy="13.75" r="2.25"/><path class="cls-1" d="M15.831,18.27A4.633,4.633,0,0,1,23.5,20.5h-6"/><circle class="cls-1" cx="12" cy="16.75" r="2.25"/><path class="cls-1" d="M16.5,23.5a4.644,4.644,0,0,0-9,0Z"/></svg>