<svg xmlns="http://www.w3.org/2000/svg" viewBox="0 0 24 24"><defs><style>.a{fill:none;stroke:currentColor;stroke-linecap:round;stroke-linejoin:round;}</style></defs><title>team-idea</title><line class="a" x1="13.5" y1="11.484" x2="10.5" y2="11.484"/><path class="a" d="M15,5.984a3.089,3.089,0,0,0-3-3,3.089,3.089,0,0,0-3,3,2.941,2.941,0,0,0,1.5,2.5v1h3v-1A2.943,2.943,0,0,0,15,5.984Z"/><circle class="a" cx="4" cy="18.234" r="1.75"/><path class="a" d="M7.5,23.484a3.612,3.612,0,0,0-7,0Z"/><circle class="a" cx="12" cy="18.234" r="1.75"/><path class="a" d="M15.5,23.484a3.612,3.612,0,0,0-7,0Z"/><circle class="a" cx="20" cy="18.234" r="1.75"/><path class="a" d="M23.5,23.484a3.612,3.612,0,0,0-7,0Z"/><line class="a" x1="12" y1="0.484" x2="12" y2="1.484"/><line class="a" x1="15.889" y1="2.095" x2="15.182" y2="2.802"/><line class="a" x1="17.5" y1="5.484" x2="16.5" y2="5.484"/><line class="a" x1="8.111" y1="2.095" x2="8.818" y2="2.802"/><line class="a" x1="6.5" y1="5.484" x2="7.5" y2="5.484"/><line class="a" x1="11" y1="13.484" x2="13" y2="13.484"/></svg>