<svg xmlns="http://www.w3.org/2000/svg" viewBox="0 0 24 24"><defs><style>.a{fill:none;stroke:currentColor;stroke-linecap:round;stroke-linejoin:round;}</style></defs><title>presentation</title><circle class="a" cx="4" cy="12.75" r="1.75"/><path class="a" d="M7.123,17.112A3.6,3.6,0,0,0,.5,18"/><circle class="a" cx="20" cy="12.75" r="1.75"/><path class="a" d="M16.877,17.112A3.6,3.6,0,0,1,23.5,18"/><circle class="a" cx="12" cy="3.25" r="1.75"/><path class="a" d="M15.5,8.5a3.612,3.612,0,0,0-7,0"/><path class="a" d="M17.749,21.3a1,1,0,0,1-.979,1.2H7.23a1,1,0,0,1-.979-1.2l2.083-10a1,1,0,0,1,.979-.8h5.374a1,1,0,0,1,.979.8Z"/><path class="a" d="M14.418,19.929a.5.5,0,0,1-.495.571H10.077a.5.5,0,0,1-.495-.571l.357-2.5A.5.5,0,0,1,10.434,17h3.132a.5.5,0,0,1,.495.429Z"/></svg>