<svg id="Light" xmlns="http://www.w3.org/2000/svg" viewBox="0 0 24 24"><defs><style>.cls-1{fill:none;stroke:currentColor;stroke-linecap:round;stroke-linejoin:round;}</style></defs><title>ecology-globe-hand</title><rect class="cls-1" x="0.5" y="14.528" width="4" height="8" rx="0.5" ry="0.5"/><path class="cls-1" d="M4.5,21.028c10.729,3.577,6.772,3.614,19-2.5a2.763,2.763,0,0,0-3-1L16.066,19"/><path class="cls-1" d="M4.5,15.528h3a6.59,6.59,0,0,1,4.5,2h3a1.016,1.016,0,1,1,0,2H9.5"/><path class="cls-1" d="M6.852,12.124a8,8,0,1,1,11.24,3.281"/><path class="cls-1" d="M19.914,3.141a3.975,3.975,0,0,1-1.74,2.606c-1.391-.348-2.782.694-2.435.694s.7,1.392.7,1.392c.348.348,1.044,0,1.044,0,.869.869-1.392,2.436-1.392,2.783s.871.522.348,1.044a2.983,2.983,0,0,1-1.043.7c0,1.739-1.74,1.739-2.087,1.739s-1.044-1.392-1.044-1.739.349-.7.349-1.043-.7-1.043-.7-1.043c0-1.392-1.043-1.044-2.088-1.044S8.783,7.833,8.783,7.833s0-2.434,1.74-2.781,1.738.347,1.738.347c.7.7,2.087,0,2.783,0,0,0,.348-2.435-.348-2.087s-1.319.078-1.391-.7C13.2,1.528,16.34.877,16.34.877"/></svg>