<svg id="Ebene_1" data-name="Ebene 1" xmlns="http://www.w3.org/2000/svg" viewBox="0 0 24 23"><defs><style>.cls-1{fill:none;stroke:#010101;stroke-linecap:round;stroke-linejoin:round;}</style></defs><title>sharescreen</title><g id="Computers-Devices-Electronics_Desktop-Computers_monitor-1" data-name="Computers-Devices-Electronics / Desktop-Computers / monitor-1"><g id="Group_78" data-name="Group 78"><g id="monitor-1"><path id="Rectangle-path_45" data-name="Rectangle-path 45" class="cls-1" d="M.5,1.5a1,1,0,0,1,1-1h21a1,1,0,0,1,1,1v14a1,1,0,0,1-1,1H1.5a1,1,0,0,1-1-1Z" transform="translate(0 0)"/><path id="Shape_382" data-name="Shape 382" class="cls-1" d="M12,20a9.18,9.18,0,0,1,2,.2l-.46-3.7h-3L10,20.2A9.18,9.18,0,0,1,12,20Z" transform="translate(0 0)"/><path id="Shape_383" data-name="Shape 383" class="cls-1" d="M7,22.5C7,21.12,9.24,20,12,20s5,1.12,5,2.5Z" transform="translate(0 0)"/></g></g></g><path id="Oval_63" data-name="Oval 63" class="cls-1" d="M12,13.65A5.35,5.35,0,1,0,6.65,8.31,5.35,5.35,0,0,0,12,13.65Z" transform="translate(0 0)"/><path id="Shape_514" data-name="Shape 514" class="cls-1" d="M12,11V5.63" transform="translate(0 0)"/><path id="Shape_515" data-name="Shape 515" class="cls-1" d="M12,5.63l-2,2" transform="translate(0 0)"/><path id="Shape_516" data-name="Shape 516" class="cls-1" d="M12,5.63l2,2" transform="translate(0 0)"/></svg>