<svg id="Ebene_1" data-name="Ebene 1" xmlns="http://www.w3.org/2000/svg" viewBox="0 0 22.83 22.83"><defs><style>.cls-1{fill:none;stroke:#010101;stroke-linecap:round;stroke-miterlimit:10;}</style></defs><title>smallteam</title><path id="Oval_501" data-name="Oval 501" class="cls-1" d="M11.71,22.54A10.92,10.92,0,1,0,.79,11.62,10.92,10.92,0,0,0,11.71,22.54Z" transform="translate(-0.29 -0.2)"/><path id="Oval_502" data-name="Oval 502" class="cls-1" d="M11.71,16.71A1.75,1.75,0,1,0,10,15,1.75,1.75,0,0,0,11.71,16.71Z" transform="translate(-0.29 -0.2)"/><path id="Shape_1222" data-name="Shape 1222" class="cls-1" d="M14.32,19a2.88,2.88,0,0,0-5.21,0" transform="translate(-0.29 -0.2)"/><path id="Oval_502-2" data-name="Oval 502" class="cls-1" d="M17.4,12.71A1.75,1.75,0,1,0,15.65,11,1.75,1.75,0,0,0,17.4,12.71Z" transform="translate(-0.29 -0.2)"/><path id="Shape_1222-2" data-name="Shape 1222" class="cls-1" d="M20,15a2.88,2.88,0,0,0-5.21,0" transform="translate(-0.29 -0.2)"/><path id="Oval_502-3" data-name="Oval 502" class="cls-1" d="M11.71,7.1A1.75,1.75,0,1,0,10,5.35,1.75,1.75,0,0,0,11.71,7.1Z" transform="translate(-0.29 -0.2)"/><path id="Shape_1222-3" data-name="Shape 1222" class="cls-1" d="M14.32,9.37a2.88,2.88,0,0,0-5.21,0" transform="translate(-0.29 -0.2)"/><path id="Oval_502-4" data-name="Oval 502" class="cls-1" d="M5.89,12.71A1.75,1.75,0,1,0,4.14,11,1.75,1.75,0,0,0,5.89,12.71Z" transform="translate(-0.29 -0.2)"/><path id="Shape_1222-4" data-name="Shape 1222" class="cls-1" d="M8.5,15a2.88,2.88,0,0,0-5.21,0" transform="translate(-0.29 -0.2)"/></svg>