<svg xmlns="http://www.w3.org/2000/svg" viewBox="0 0 24 24"><defs><style>.a{fill:none;stroke:currentColor;stroke-linecap:round;stroke-linejoin:round;}</style></defs><title>business-deal-handshake-1</title><path class="a" d="M14.5,8.25,10.934,9.422a1.187,1.187,0,0,1-.9-2.189l3.455-1.727A2.427,2.427,0,0,1,15.4,5.4L20.5,7.25v7l-6.006,1.141"/><path class="a" d="M3.5,14.25H6l3.59,4.024A1.371,1.371,0,0,0,12,17.379V16.75l.179.072A1.693,1.693,0,0,0,14.5,15.25H15a1.5,1.5,0,0,0,1.2-2.4L13,8.75"/><path class="a" d="M10.552,6.969l-.366-.3A2.144,2.144,0,0,0,8.116,6.4L3.5,8.25"/><path class="a" d="M.5,6.25h2a1,1,0,0,1,1,1v7a1,1,0,0,1-1,1H.5"/><path class="a" d="M23.5,15.25h-2a1,1,0,0,1-1-1v-7a1,1,0,0,1,1-1h2"/><line class="a" x1="12" y1="16.75" x2="11" y2="15.75"/><line class="a" x1="13" y1="13.75" x2="14.5" y2="15.25"/></svg>