<svg xmlns="http://www.w3.org/2000/svg" viewBox="0 0 24 24"><defs><style>.a{fill:none;stroke:currentColor;stroke-linecap:round;stroke-linejoin:round;}</style></defs><title>keyboard</title><rect class="a" x="0.5" y="13.5" width="23" height="10" rx="2" ry="2"/><path class="a" d="M3.5,13.5v-1a3,3,0,0,1,3-3H20a3.5,3.5,0,0,0,0-7H13.5A1.5,1.5,0,0,1,12,1V.5"/><line class="a" x1="4" y1="20.5" x2="5" y2="20.5"/><line class="a" x1="4" y1="18.5" x2="5" y2="18.5"/><line class="a" x1="7" y1="18.5" x2="8" y2="18.5"/><line class="a" x1="10" y1="18.5" x2="11" y2="18.5"/><line class="a" x1="13" y1="18.5" x2="14" y2="18.5"/><line class="a" x1="16" y1="18.5" x2="17" y2="18.5"/><line class="a" x1="19" y1="18.5" x2="20" y2="18.5"/><line class="a" x1="4" y1="16.5" x2="5" y2="16.5"/><line class="a" x1="7" y1="16.5" x2="8" y2="16.5"/><line class="a" x1="10" y1="16.5" x2="11" y2="16.5"/><line class="a" x1="13" y1="16.5" x2="14" y2="16.5"/><line class="a" x1="16" y1="16.5" x2="17" y2="16.5"/><line class="a" x1="19" y1="16.5" x2="20" y2="16.5"/><line class="a" x1="7" y1="20.5" x2="17" y2="20.5"/><line class="a" x1="19" y1="20.5" x2="20" y2="20.5"/></svg>